<svg width="416" height="543" viewBox="0 0 416 543" fill="none" xmlns="http://www.w3.org/2000/svg">
<ellipse cx="218.411" cy="264.78" rx="188.168" ry="264.78" fill="#5DCFF3"/>
<ellipse cx="188.168" cy="278.22" rx="188.168" ry="264.78" fill="#75FBDB"/>
<path d="M48.3867 42.6738C85.3484 97.4442 47.6013 216.767 114.246 213.369C199.929 209.001 258.403 249.364 277.549 295.693C304.766 361.552 302.078 437.491 390.45 433.459" stroke="#FF0C29" stroke-width="33.6015"/>
<path d="M118.277 340.047C137.654 344.527 181.919 340.249 203.961 287.293C231.514 221.098 262.764 188.84 301.405 190.856C340.047 192.872 472.101 199.257 363.568 76.6113" stroke="#F944E5" stroke-width="20.1609"/>
<path d="M52.082 40.6578C86.0195 85.0118 48.0503 181.112 91.7322 203.961C129.365 223.646 222.105 199.593 280.572 303.421C320.427 374.198 299.389 427.075 391.121 427.075" stroke="white" stroke-width="5.37624"/>
</svg>
