<svg width="374" height="164" viewBox="0 0 374 164" fill="none" xmlns="http://www.w3.org/2000/svg">
<g clip-path="url(#clip0_85_402)">
<path d="M84.2061 9.3434C84.2061 9.21748 84.2313 9.04119 84.3069 8.83972C84.3825 8.63824 84.4077 8.48714 84.4077 8.33603C84.4077 8.18493 84.4833 8.08419 84.6094 7.93308C84.7354 7.40421 85.2395 6.67387 86.0964 5.74205C86.9533 4.81023 87.4574 4.231 87.5834 3.95397C87.7094 3.95397 88.0875 3.77768 88.6672 3.45028C89.2721 3.12289 89.9274 2.71994 90.6583 2.26662C91.3892 1.81331 92.0697 1.35999 92.7502 0.982224C93.4055 0.579276 93.9348 0.327433 94.3381 0.176328C94.5901 0.0504063 94.9934 -0.0251465 95.5226 -0.0251465H96.7072L97.8918 0.377802C98.2951 0.503723 98.8243 0.579276 99.4796 0.579276C100.009 0.856303 100.488 1.05778 100.866 1.1837C101.118 1.30962 101.471 1.46073 101.874 1.58665C101.874 2.24144 101.95 2.84586 102.076 3.37473C102.328 4.7095 102.529 5.56576 102.681 5.96871C102.681 6.24574 102.706 6.82498 102.781 7.75679C102.857 8.68861 102.907 9.6708 102.983 10.7537C103.059 11.8115 103.159 12.8692 103.285 13.9269C103.411 14.9847 103.487 15.7906 103.487 16.3194V21.2052C103.487 23.2703 103.512 25.285 103.588 27.2746C103.663 29.2642 103.714 31.0522 103.79 32.6389C103.865 34.2255 103.966 35.1573 104.092 35.4343C103.966 35.9632 103.815 36.4417 103.689 36.8194C103.411 37.6253 103.21 38.2046 103.084 38.6075C102.958 38.8846 102.882 39.1616 102.882 39.5142C102.882 39.8667 102.807 40.1438 102.681 40.4208C102.555 40.8237 102.403 41.1511 102.277 41.4282C101.874 41.7052 101.471 42.2593 101.093 43.1155C100.689 43.9718 100.362 44.3999 100.085 44.3999C99.8073 44.5258 99.2528 44.8784 98.3959 45.4073C97.5389 45.9362 96.6064 46.465 95.5982 46.9939C94.5901 47.5228 93.6323 48.0264 92.6998 48.4798C91.7673 48.9583 91.112 49.2353 90.7087 49.3864C90.7087 49.6634 90.2802 49.7893 89.4233 49.7893C88.5664 49.7893 87.9363 49.9153 87.533 50.1923L87.1298 49.9908H86.5249C86.3988 49.739 86.046 49.3612 85.5167 48.9079C84.9874 48.4546 84.7858 48.0768 84.9118 47.825C85.0378 47.6991 85.0882 47.0191 85.0126 45.8354C84.937 44.6518 84.9118 43.9718 84.9118 43.8459C84.7858 42.914 84.685 41.5037 84.6094 39.5645C84.5338 37.6505 84.5085 35.661 84.5085 33.5959V24.5547C84.5085 24.3029 84.4329 23.497 84.3069 22.1622C84.1809 20.8274 84.0297 19.4171 83.9037 17.8809C83.7776 16.3698 83.702 14.9343 83.702 13.5995V11.207C83.702 10.9552 83.7776 10.6782 83.9037 10.4011C83.9037 10.1493 83.9289 9.94783 84.0045 9.79672C84.0801 9.6708 84.1053 9.54488 84.1053 9.39377L84.2061 9.3434ZM94.3633 130.102C93.834 129.825 93.0779 129.447 92.0697 128.918C91.0616 128.389 90.3054 127.987 89.7762 127.735C89.6501 127.332 89.4989 127.004 89.3729 126.727C89.0957 126.198 88.9696 125.871 88.9696 125.72C88.9696 125.468 88.7932 124.587 88.4656 123.126C88.1379 121.665 87.9615 120.733 87.9615 120.33C87.8355 119.928 87.659 119.273 87.4574 118.341C87.2558 117.409 87.0793 116.452 86.9533 115.445C86.8273 114.437 86.7265 113.455 86.6509 112.448C86.5753 111.44 86.5501 110.76 86.5501 110.358C86.424 108.771 86.2476 106.555 86.046 103.684C85.8444 100.838 85.6427 97.9165 85.4411 94.9196C85.2395 91.9226 85.0378 89.2531 84.8362 86.8606C84.6346 84.4681 84.4581 83.083 84.3321 82.68V66.5621C84.5842 66.0332 84.9622 65.2021 85.4159 64.0688C85.8696 62.9355 86.2476 62.2556 86.4997 61.9785L88.5916 59.8882C89.7258 58.755 90.4819 58.075 90.8851 57.7979C91.1372 57.395 91.7169 56.9669 92.5738 56.5135C93.4307 56.0602 93.9852 55.8084 94.2624 55.8084C94.3885 55.8084 94.8673 55.7077 95.6487 55.5062C96.43 55.3047 96.9845 55.204 97.2365 55.204C97.3625 55.204 97.8414 55.3299 98.6227 55.6069C99.026 55.7328 99.3536 55.8084 99.6309 55.8084L100.437 57.7979C100.563 58.6038 100.689 60.0897 100.841 62.2807C100.967 64.4718 101.067 66.7635 101.143 69.1561C101.219 71.5486 101.32 73.79 101.446 75.9306C101.572 78.0461 101.647 79.5068 101.647 80.3127C101.647 81.1186 101.748 82.6296 101.95 84.8962C102.151 87.1628 102.378 89.6057 102.655 92.25C102.907 94.8944 103.185 97.4128 103.462 99.8053C103.714 102.198 103.916 103.91 104.067 104.968C104.067 105.245 104.142 105.774 104.268 106.555C104.394 107.361 104.495 108.192 104.571 109.048C104.646 109.904 104.747 110.685 104.873 111.34C104.999 111.994 105.075 112.397 105.075 112.523V116.905C105.075 117.182 104.898 117.737 104.571 118.593C104.243 119.449 104.067 120.028 104.067 120.28C103.79 120.406 103.336 120.935 102.681 121.867C102.277 122.396 101.95 122.874 101.672 123.252C101.395 124.058 101.017 124.838 100.488 125.644" fill="#9B00E9"/>
<path d="M338.16 126.727C337.631 126.727 336.572 126.425 334.984 125.821C333.397 125.216 332.338 124.914 331.809 124.914C331.532 124.788 331.053 124.511 330.322 124.108C329.591 123.705 328.759 123.277 327.827 122.824C326.894 122.37 326.012 121.917 325.13 121.539C324.273 121.136 323.693 120.809 323.441 120.532C323.038 120.28 322.408 119.877 321.551 119.348C320.694 118.819 320.114 118.416 319.862 118.165C319.459 117.913 318.829 117.308 317.972 116.377C317.115 115.445 316.182 114.463 315.174 113.38C314.166 112.322 313.208 111.289 312.276 110.307C311.343 109.3 310.688 108.62 310.285 108.217C310.159 108.217 309.806 107.864 309.277 107.134C308.747 106.404 308.42 105.774 308.268 105.245C307.991 104.842 307.664 104.238 307.26 103.457C306.857 102.651 306.429 101.845 305.975 100.964C305.496 100.107 305.067 99.2764 304.689 98.4705C304.286 97.6646 303.959 97.0854 303.681 96.6824C303.681 96.4306 303.555 95.8765 303.278 95.0958C303.001 94.2899 302.875 93.8366 302.875 93.7107V78.3986C302.875 78.2727 302.95 77.9453 303.076 77.3913C303.202 76.8624 303.379 76.258 303.58 75.6032C303.782 74.9484 303.984 74.2684 304.185 73.6136C304.387 72.9588 304.614 72.4803 304.891 72.2285C304.891 71.9767 305.067 71.5737 305.395 71.0448C305.723 70.516 305.899 70.113 305.899 69.8612C306.025 69.6093 306.328 69.1056 306.807 68.3753C307.26 67.645 307.764 66.9146 308.294 66.1843C308.823 65.4539 309.478 64.5725 310.285 63.4896C310.411 63.3636 310.789 62.9859 311.368 62.4066C311.948 61.8274 312.603 61.1474 313.259 60.4171C313.914 59.6867 314.595 58.9816 315.25 58.3268C315.905 57.672 316.384 57.1935 316.636 56.9416C317.039 56.6898 317.77 56.1357 318.829 55.355C319.887 54.5491 320.618 54.0203 321.022 53.7684C321.425 53.5166 322.03 53.1388 322.811 52.6855C323.618 52.2322 324.474 51.7537 325.407 51.3004C326.34 50.8471 327.196 50.3937 328.003 50.016C328.81 49.613 329.389 49.3612 329.792 49.2101C330.196 49.2101 330.927 49.0841 331.985 48.8071C333.044 48.5553 333.775 48.4042 334.178 48.4042H347.133C347.385 48.4042 348.04 48.5301 349.023 48.8071C350.031 49.0841 350.787 49.2101 351.317 49.2101C351.443 49.2101 351.77 49.4115 352.325 49.8145C352.854 50.2174 353.182 50.5448 353.333 50.8219C353.862 50.9478 354.568 51.4263 355.425 52.207C356.282 53.0129 356.71 53.5418 356.71 53.7936C356.71 53.9195 356.786 54.2721 356.912 54.801C357.038 55.3299 357.139 55.8839 357.214 56.4883C357.29 57.0928 357.391 57.6468 357.517 58.1757C357.643 58.7045 357.769 59.0319 357.92 59.183C358.046 59.4601 358.348 59.9386 358.827 60.6689C359.281 61.3993 359.835 62.2052 360.415 63.0614C361.02 63.9177 361.575 64.7236 362.104 65.4539C362.633 66.1843 363.036 66.688 363.288 66.9398C363.54 67.0657 364.095 67.8716 364.876 69.3323C365.683 70.793 366.212 71.8004 366.464 72.3041C366.993 73.2359 367.724 74.7217 368.657 76.7869C369.589 78.852 370.169 80.1364 370.446 80.6652C370.698 81.0682 371.177 82.1007 371.833 83.7377C372.488 85.3999 372.841 86.4324 372.841 86.8102C372.967 87.6161 373.194 88.6738 373.546 89.9834C373.874 91.3182 374.05 92.0485 374.05 92.1744V99.9312C374.05 100.208 373.874 100.838 373.546 101.82C373.219 102.827 372.992 103.709 372.841 104.515C372.841 104.641 372.664 105.119 372.337 105.9C372.009 106.706 371.833 107.235 371.833 107.486C371.833 107.738 371.656 108.141 371.328 108.67C371.001 109.199 370.698 109.602 370.421 109.854C370.421 109.98 370.194 110.458 369.715 111.239C369.237 112.045 368.884 112.574 368.632 112.826C368.102 113.228 367.447 113.959 366.641 115.017C365.834 116.074 365.305 116.805 365.053 117.208L364.045 118.215C363.919 118.492 363.238 119.021 362.053 119.802C360.869 120.582 360.062 121.136 359.659 121.388C359.382 121.665 358.853 122.093 358.071 122.673C357.265 123.277 356.811 123.579 356.685 123.579C356.408 123.856 355.652 124.234 354.391 124.763C353.131 125.292 352.501 125.695 352.501 125.947M335.186 67.645L334.178 66.8391L333.573 66.2346L333.17 66.6376C333.044 66.7635 332.893 66.8391 332.767 66.8391C332.363 67.242 331.91 67.5694 331.38 67.8464C331.103 67.9724 330.876 68.0731 330.675 68.1486C330.473 68.2242 330.297 68.3249 330.171 68.4509C329.893 68.5768 329.767 68.7279 329.767 68.8538C329.49 68.8538 329.112 69.0301 328.583 69.3575C328.053 69.6849 327.65 69.8612 327.398 69.8612H324.424L323.416 68.8538C323.139 68.7279 322.912 68.3501 322.71 67.7709C322.509 67.1665 322.282 66.8642 322.004 66.8642C321.727 66.8642 321.374 67.1665 320.921 67.7709C320.442 68.3753 320.089 68.7279 319.837 68.8538C319.711 69.2568 319.56 69.7101 319.434 70.2389C319.156 71.2967 319.03 71.9767 319.03 72.2285V79.5823C319.03 79.8593 319.156 80.5393 319.434 81.6726C319.686 82.8059 319.837 83.4859 319.837 83.7629C320.089 84.0399 320.442 84.594 320.845 85.4502C321.248 86.3065 321.677 87.2131 322.131 88.145C322.584 89.0768 323.038 89.933 323.416 90.7389C323.819 91.5448 324.147 91.9982 324.424 92.1241C324.55 92.653 325.029 93.4085 325.81 94.4158C326.592 95.4232 327.146 96.1787 327.398 96.7076C327.801 96.9846 328.532 97.6646 329.591 98.7979C330.649 99.9312 331.38 100.687 331.784 101.09C332.313 101.367 333.069 101.921 334.077 102.777C335.085 103.633 335.841 104.213 336.371 104.464C336.497 104.464 336.925 104.666 337.656 105.069C338.387 105.472 339.219 105.9 340.151 106.353C341.084 106.832 342.016 107.26 342.949 107.638C343.881 108.041 344.537 108.242 344.94 108.242C345.192 108.519 345.747 108.846 346.528 109.249C347.334 109.652 347.788 109.854 347.914 109.854H349.905C350.838 109.854 351.795 109.879 352.804 109.955C353.812 110.03 354.719 110.055 355.601 110.055H357.492C357.492 109.652 357.466 108.972 357.391 107.965C357.315 106.958 357.265 105.9 357.189 104.792C357.113 103.658 357.013 102.651 356.887 101.719C356.761 100.787 356.685 100.208 356.685 99.9312C356.685 99.8053 356.584 99.4779 356.383 98.9238C356.181 98.395 355.979 97.7905 355.778 97.1357C355.576 96.481 355.299 95.801 354.971 95.1462C354.643 94.4914 354.417 94.0129 354.265 93.7611C354.139 93.5092 353.887 92.9552 353.56 92.1744C353.232 91.3685 352.854 90.5123 352.476 89.5805C352.073 88.6486 351.669 87.7672 351.291 86.8857C350.888 86.0295 350.56 85.3999 350.283 84.9969C350.006 84.594 349.477 83.6622 348.695 82.2015C347.889 80.7408 347.36 79.8845 347.108 79.6075C346.83 79.2045 346.276 78.449 345.419 77.3157C344.562 76.1824 343.932 75.5025 343.529 75.2254C343.529 74.9736 343.226 74.5958 342.621 74.1425C342.016 73.6892 341.714 73.3114 341.714 73.0596" fill="#9B00E9"/>
<path d="M35.4367 122.169C34.7814 121.766 33.5464 121.413 31.7569 121.086C29.9674 120.759 28.682 120.456 27.8755 120.179L27.069 120.582L25.2795 153.599C25.2795 153.851 24.9519 154.455 24.2714 155.387C23.6161 156.319 23.1372 157.049 22.8851 157.578C22.6079 157.704 22.2298 158.006 21.7006 158.485C21.1713 158.938 20.6168 159.442 20.0119 159.971C19.407 160.499 18.8273 161.003 18.2224 161.456C17.6175 161.91 17.1891 162.212 16.937 162.363C16.5338 162.489 15.8029 162.816 14.7443 163.37C13.6857 163.899 12.9548 164.101 12.5516 163.975H10.7621L9.17425 163.773C9.04823 163.773 8.87181 163.647 8.67018 163.37C8.46854 163.093 8.24171 162.892 7.96447 162.766C7.96447 162.363 7.93926 161.633 7.86365 160.575C7.78804 159.517 7.68722 158.409 7.56121 157.301C7.43519 156.168 7.33437 155.11 7.25876 154.128C7.18315 153.12 7.15794 152.44 7.15794 152.038C7.03192 150.854 6.83029 148.587 6.55305 145.263C6.27581 141.939 5.97336 138.161 5.64571 133.93C5.31806 129.674 4.99041 125.141 4.66276 120.305C4.33511 115.47 4.03267 110.861 3.75542 106.479C3.47818 102.097 3.22614 98.2439 2.9489 94.9448C2.67166 91.6204 2.54564 89.3035 2.54564 87.9687C2.54564 87.7169 2.52044 87.2132 2.44482 86.4828C2.36921 85.7525 2.34401 84.997 2.34401 84.1911V76.8373C2.34401 74.9736 2.2684 73.0344 2.14238 70.9693C2.01636 68.9042 1.91554 66.965 1.83993 65.1014C1.76432 63.2378 1.6635 62.1045 1.53749 61.7267V59.5357C1.53749 58.8809 1.46187 58.2513 1.33585 57.6469C1.20983 57.0424 1.05861 56.6143 0.932593 56.3625C0.932593 56.2365 0.856981 55.6573 0.730962 54.6751C0.604943 53.6677 0.453719 52.6604 0.3277 51.6026C0.201681 50.5449 0.100865 49.5123 0.0252539 48.5302C-0.0503577 47.5228 -0.0755615 46.9184 -0.0755615 46.6413C-0.0755615 46.5154 -0.0503577 45.9362 0.0252539 44.954C0.100865 43.9466 0.126069 43.2666 0.126069 42.8637C0.126069 42.6118 0.151273 42.2593 0.226885 41.8563C0.302496 41.4534 0.3277 41.0504 0.3277 40.6727C0.3277 40.1438 0.403312 39.6653 0.529331 39.2875C0.529331 39.0357 0.705758 38.6327 1.03341 38.1039C1.36106 37.575 1.53749 37.172 1.53749 36.9202C1.78952 36.7943 2.2684 36.4165 2.9237 35.8373C3.579 35.2329 4.28471 34.6536 5.01562 34.0492C5.74653 33.4448 6.45224 32.8907 7.10754 32.3618C7.76284 31.833 8.29212 31.43 8.69538 31.1782C8.94742 31.1782 9.35068 31.0019 9.87996 30.6745C10.4092 30.3471 10.8125 30.2464 11.0645 30.3723H12.854C12.98 30.4982 13.3833 30.5738 14.0386 30.5738H15.0468C15.2988 30.9767 15.7777 31.5056 16.433 32.1604C17.0883 32.8152 17.794 33.5455 18.5249 34.3514C19.2558 35.1573 19.9615 35.8876 20.6168 36.5424C21.2721 37.1972 21.8014 37.6757 22.2046 37.9276C22.3307 38.0535 22.7087 38.3557 23.2884 38.8342C23.8933 39.3127 24.473 39.766 25.0779 40.2193C25.6828 40.6978 26.2373 41.1512 26.7665 41.6045C27.2958 42.083 27.6991 42.36 27.9511 42.5111C28.6064 42.9141 30.0178 43.7703 32.135 45.1051C34.2521 46.4399 36.5456 47.9005 39.0156 49.4872C41.4604 51.0738 43.7287 52.5344 45.7955 53.8692C47.8622 55.204 49.0719 56.0602 49.4752 56.4632C49.6012 56.5891 49.9793 56.8913 50.559 57.3698C51.1639 57.8483 51.794 58.3016 52.4493 58.755C53.1046 59.2335 53.7095 59.6868 54.2387 60.1401C54.768 60.6186 55.1713 60.9712 55.4233 61.223C55.8266 61.5 56.6583 62.2304 57.9185 63.4141C59.1787 64.5977 60.0104 65.5295 60.4137 66.2095C60.8169 66.2095 61.1446 66.3354 61.4218 66.6125L61.8251 67.0154C62.3544 67.6702 62.9089 68.602 63.5138 69.8109C64.1187 70.9945 64.4211 71.7249 64.4211 72.0019C64.6731 72.4048 65.152 73.4626 65.8073 75.1751C66.4626 76.9128 66.9415 77.9706 67.1935 78.3483C67.3195 78.8772 67.496 79.7083 67.6976 80.8416C67.8992 81.9749 68 82.6548 68 82.9319C68 83.0578 67.9244 84.0652 67.7984 85.9036C67.6724 87.7672 67.5212 89.2279 67.3952 90.2857C67.2691 90.8145 67.1935 91.419 67.1935 92.0738C67.1935 92.7285 67.1179 93.4085 66.9919 94.0633C66.8659 94.8692 66.7903 95.7255 66.7903 96.6573C66.7903 96.9343 66.387 97.841 65.6057 99.4528C64.7992 101.039 64.2699 102.299 64.0178 103.23C63.8918 103.507 63.6902 103.759 63.4129 104.036C63.1357 104.313 62.9341 104.54 62.8081 104.741C62.682 104.943 62.5308 104.968 62.4048 104.842C62.4048 105.119 62.1275 105.673 61.5983 106.53C61.069 107.386 60.6657 108.015 60.4137 108.418C59.7584 108.821 58.9771 109.451 58.1201 110.307C57.2632 111.163 56.6835 111.743 56.4315 111.995C56.4315 112.272 56.1038 112.624 55.4233 113.077C54.768 113.556 54.4152 113.909 54.4152 114.16C53.8859 114.286 52.8777 114.891 51.4411 115.948C49.9793 117.006 49.0467 117.737 48.6435 118.139M43.0734 120.532L40.2758 121.338L43.0734 120.532ZM34.5041 71.3975C34.5041 71.2715 34.3277 71.0701 34 70.793C33.6724 70.5412 33.3699 70.2642 33.0927 69.9872C32.4374 69.5842 31.5553 69.0553 30.4967 68.4005C29.4382 67.7457 28.3796 67.0406 27.321 66.3102C26.2625 65.5799 25.3047 64.9503 24.4226 64.4214C23.5657 63.8926 23.0616 63.6155 22.9356 63.6155H21.751C21.751 63.8926 21.7258 64.4718 21.6502 65.4036C21.5745 66.3354 21.5493 66.9399 21.5493 67.1917C21.6754 67.4687 21.877 68.5265 22.1542 70.3649C22.4063 72.2285 22.6583 74.3188 22.8599 76.6358C23.0616 78.9528 23.2632 81.2697 23.4648 83.6118C23.6665 85.9288 23.8177 87.6917 23.9689 88.8754C24.0949 89.4042 24.2714 90.1598 24.473 91.1671C24.6746 92.1745 24.7754 92.8041 24.7754 93.0559L25.1787 93.4589C25.4307 93.7359 25.582 94.0633 25.582 94.4663C25.9852 94.7433 26.5901 95.1714 27.3714 95.7507C28.178 96.3551 28.9593 96.9847 29.7658 97.6395C30.5723 98.2943 31.2528 98.8987 31.8577 99.4276C32.4626 99.9564 32.8155 100.284 32.9415 100.435C33.4708 101.09 34.5041 101.87 36.0164 102.727C37.5286 103.583 38.5619 104.011 39.0912 104.011C39.7465 104.137 40.3514 104.213 40.8807 104.213C41.41 104.339 41.9141 104.414 42.3677 104.414H43.4515C43.9808 104.54 44.9133 104.641 46.2491 104.716C47.5849 104.792 48.3662 104.817 48.6435 104.817C48.7695 104.817 49.0468 104.414 49.45 103.633C49.8533 102.827 50.0549 102.299 50.0549 102.047C50.1809 101.795 50.2817 101.14 50.3573 100.158C50.433 99.1505 50.4582 98.395 50.4582 97.8661C50.4582 97.6143 50.4834 97.3121 50.559 96.9595C50.6346 96.6321 50.6598 96.2543 50.6598 95.8766C50.6598 95.3477 50.7354 94.8188 50.8614 94.29C50.5842 93.887 50.3826 93.1567 50.2565 92.0989C50.1305 91.0412 50.0549 90.3109 50.0549 89.9079C49.7777 89.2531 49.324 88.0443 48.6687 86.3317C48.0134 84.6192 47.5345 83.5363 47.2825 83.1585C47.2825 83.0326 47.0052 82.6297 46.476 81.9749C45.9467 81.3201 45.3922 80.6149 44.7873 79.8846C44.1824 79.1542 43.6027 78.4239 42.9978 77.6935C42.3929 76.9632 41.9645 76.4595 41.7124 76.2077C41.4352 76.2077 41.0571 76.0817 40.5278 75.8047C40.1246 75.6788 39.7969 75.4773 39.5197 75.2003" fill="#9B00E9"/>
<path d="M178.09 128.49L178.897 129.498H180.686C180.686 129.623 180.888 129.699 181.291 129.699H181.896C182.299 129.699 182.93 129.598 183.787 129.397C184.643 129.195 185.223 129.17 185.475 129.296V129.321C186.408 129.019 187.416 128.792 188.525 128.717C188.626 128.037 188.752 127.508 188.853 127.307C188.979 127.181 189.306 126.778 189.861 126.123C190.39 125.468 190.919 124.788 191.449 124.133C191.978 123.479 192.457 122.849 192.835 122.244C193.238 121.64 193.44 121.212 193.44 120.96C193.692 120.96 194.045 120.607 194.448 119.877C194.851 119.147 195.053 118.593 195.053 118.19L195.254 117.182C195.254 116.654 195.33 116.175 195.456 115.797C195.456 115.545 195.33 114.966 195.053 114.11C194.775 113.254 194.523 112.75 194.246 112.624C194.246 112.221 194.045 110.811 193.641 108.343C193.238 105.9 192.784 103.23 192.255 100.385C191.726 97.5387 191.222 94.9195 190.768 92.527C190.289 90.1345 190.012 88.8249 189.861 88.5479C189.861 88.145 189.735 87.5154 189.457 86.6591C189.18 85.8028 188.928 84.9466 188.651 84.0651C188.374 83.2089 188.147 82.4533 187.945 81.7733C187.744 81.1186 187.643 80.7156 187.643 80.5897C187.365 79.9349 186.887 78.3483 186.156 75.8047C185.425 73.2863 184.618 70.5915 183.761 67.7457C182.904 64.8999 182.098 62.2304 181.367 59.7875C180.636 57.3446 180.208 55.8335 180.082 55.3047C179.956 55.0528 179.804 54.5743 179.678 53.9195C179.552 53.2648 179.401 52.9122 179.275 52.9122C178.998 52.3833 178.645 51.6781 178.191 50.8219C177.712 49.9656 177.36 49.3864 177.108 49.1345L175.52 47.145C175.242 47.0191 174.89 46.8176 174.436 46.5406C173.957 46.2887 173.68 46.0117 173.529 45.7347H172.722C172.445 45.7347 172.243 45.7095 172.117 45.6339C171.991 45.5584 171.84 45.5332 171.714 45.5332H170.706C170.58 45.5332 170.428 45.4576 170.302 45.3317C169.647 45.6087 168.488 46.062 166.824 46.7168C165.161 47.3716 164.001 47.7746 163.346 47.9005C163.069 48.1775 162.388 48.656 161.254 49.3864C160.12 50.1167 159.364 50.6708 158.961 51.0737C158.683 50.9478 158.431 51.0485 158.154 51.3759C157.877 51.7033 157.675 51.8796 157.549 51.8796C156.743 52.6855 155.634 53.8692 154.172 55.4558C152.71 57.0424 151.904 57.9742 151.778 58.2512C151.5 58.5283 151.022 59.0571 150.291 59.8378C149.56 60.6437 148.829 61.5252 148.098 62.5326C147.367 63.5399 146.661 64.4466 146.006 65.328C145.351 66.1843 144.872 66.7635 144.62 67.0154C144.343 66.7635 144.141 66.3606 144.015 65.8317C143.889 65.3028 143.687 64.8999 143.41 64.648C143.41 64.5221 143.334 63.9429 143.208 62.9607C143.082 61.9533 142.931 60.946 142.805 59.8882C142.679 58.8305 142.503 57.7979 142.301 56.8157C142.099 55.8084 141.999 55.2039 141.999 54.9269C141.999 54.6499 141.923 54.0958 141.797 53.2396C141.671 52.3833 141.52 51.4767 141.394 50.5448C141.268 49.613 141.167 48.7316 141.091 47.8501C141.016 46.9939 140.99 46.3643 140.99 45.9613C140.864 45.4324 140.688 44.8028 140.486 44.0725C140.285 43.3421 140.083 42.5866 139.881 41.7807C139.68 40.9748 139.503 40.2949 139.377 39.6904C139.251 39.086 139.176 38.7334 139.176 38.6075C139.05 38.2046 138.772 37.449 138.369 36.3157C137.966 35.1824 137.714 34.4269 137.563 34.024L136.958 33.4195L136.555 33.0166C135.748 32.7648 135.219 32.6136 134.967 32.6136H132.976C132.698 32.6136 132.018 32.8151 130.884 33.2181C129.749 33.621 129.069 33.8729 128.792 34.024C128.514 34.301 128.086 34.6788 127.506 35.2076C126.901 35.7365 126.322 36.2654 125.717 36.7942C125.112 37.3231 124.557 37.8268 124.028 38.2801C123.499 38.7586 123.171 38.9853 123.02 38.9853C122.743 39.5141 122.289 40.32 121.634 41.3778C120.979 42.4355 120.626 43.1155 120.626 43.3673C120.5 43.6444 120.424 43.9718 120.424 44.3747V45.7598C120.298 45.8858 120.222 46.2383 120.222 46.7672V47.7746C120.5 48.1775 120.752 48.6308 121.029 49.1597C121.281 49.5627 121.457 49.9656 121.533 50.3434C121.609 50.7463 121.709 50.9982 121.835 51.1493C121.835 51.2752 121.961 51.653 122.239 52.2322C122.491 52.8366 122.642 53.1892 122.642 53.3151C122.894 53.844 123.171 55.2039 123.449 57.395C123.701 59.586 123.978 61.1978 124.255 62.2807C124.381 62.9355 124.557 64.4466 124.759 66.7635C124.961 69.0805 125.213 71.8759 125.566 75.1247C125.893 78.3735 126.221 81.8489 126.574 85.5762C126.901 89.3034 127.204 92.7789 127.481 96.0276C127.733 99.2764 127.985 102.097 128.187 104.49C128.388 106.882 128.54 108.343 128.691 108.872C128.817 109.275 128.943 109.929 129.094 110.861C129.22 111.793 129.346 112.725 129.497 113.657C129.623 114.588 129.749 115.445 129.901 116.251C130.027 117.057 130.153 117.585 130.304 117.837C130.556 118.492 130.858 119.726 131.211 121.514C131.539 123.302 131.64 124.335 131.514 124.587C131.766 124.864 132.219 125.418 132.799 126.274C133.404 127.13 133.832 127.709 134.085 127.961L139.957 126.878C140.159 126.022 140.31 125.518 140.461 125.393C140.461 125.141 140.764 124.687 141.368 124.108L143.259 122.219C143.914 121.564 144.595 120.96 145.25 120.431C145.905 119.902 146.308 119.499 146.434 119.248C146.686 118.996 147.14 118.316 147.72 117.258C148.325 116.2 148.753 115.394 149.005 114.865C149.005 114.387 149.03 112.951 149.081 110.66C148.678 108.595 148.728 106.404 149.257 104.364C149.308 103.104 149.333 101.845 149.408 100.536C149.534 97.2113 149.711 94.164 149.913 91.3937C150.114 88.6235 150.265 86.8858 150.417 86.231C150.417 86.105 150.543 85.6265 150.82 84.8458C151.072 84.0399 151.349 83.1837 151.626 82.2519C151.878 81.32 152.156 80.4386 152.433 79.5571C152.685 78.7009 152.887 78.0713 153.038 77.6683C153.441 77.2654 153.945 76.4091 154.525 75.0743C155.13 73.7396 155.609 72.8833 156.012 72.4804C156.138 72.2285 156.466 71.6745 157.02 70.8937C157.549 70.0878 158.053 69.282 158.507 68.4005C158.961 67.5442 159.44 66.7383 159.893 66.008C160.347 65.2776 160.725 64.774 160.977 64.5221L164.354 71.8759C164.606 72.8078 165.085 74.344 165.741 76.4595C166.396 78.5749 167.127 80.8163 167.933 83.1333C168.74 85.4502 169.42 87.6665 170.025 89.8071C170.63 91.9226 171.059 93.3833 171.311 94.1892C171.437 94.5921 171.815 96.3047 172.394 99.352C172.999 102.399 173.629 105.648 174.285 109.098C174.94 112.549 175.545 115.797 176.074 118.845C176.603 121.892 176.931 123.63 177.082 124.007C177.334 124.284 177.511 125.04 177.586 126.299C177.662 127.558 177.813 128.314 178.09 128.591V128.49Z" fill="#9B00E9"/>
<path d="M287.4 120.532C287.198 120.003 286.971 119.6 286.694 119.348C286.946 119.222 286.694 118.593 285.887 117.459C285.081 116.326 284.501 115.697 284.098 115.571C284.098 115.042 283.619 114.211 282.712 113.077C281.779 111.944 281.325 111.264 281.325 110.987C280.922 110.861 280.393 110.534 279.738 109.98C279.082 109.451 278.377 108.897 277.646 108.292C276.915 107.688 276.209 107.134 275.554 106.605C274.898 106.076 274.42 105.749 274.168 105.598C273.89 105.346 273.134 104.842 271.874 104.112C270.614 103.381 269.908 102.827 269.782 102.424C269.127 102.173 268.32 101.77 267.388 101.241C266.455 100.712 265.497 100.158 264.489 99.5534C263.481 98.949 262.624 98.4201 261.893 97.9668C261.162 97.5135 260.809 97.2113 260.809 97.0602C260.532 97.0602 259.751 96.8587 258.415 96.4558C257.079 96.0528 256.096 95.6499 255.416 95.2721C255.139 95.2721 254.66 95.1714 253.929 94.9699C253.198 94.7684 252.391 94.5166 251.534 94.164C250.678 93.8366 249.846 93.5596 249.039 93.3581C248.233 93.1566 247.779 93.0559 247.653 93.0559C247.376 93.0559 246.796 92.7537 245.864 92.1492C244.931 91.5448 244.326 91.2426 244.074 91.2426C244.729 91.1167 245.738 90.5878 247.073 89.656C248.409 88.7242 249.795 87.7672 251.257 86.7598C252.719 85.7524 254.105 84.7703 255.441 83.7881C256.777 82.7807 257.76 82.1007 258.44 81.6978C258.566 81.5718 258.995 81.1689 259.726 80.5141C260.457 79.8593 261.213 79.1542 262.019 78.4238C262.826 77.6935 263.632 76.9631 264.514 76.2328C265.371 75.5024 266.001 74.9484 266.405 74.5454C266.657 73.8907 267.337 72.7825 268.396 71.2715C269.454 69.7604 270.185 68.7782 270.589 68.3753C270.589 68.2494 270.664 68.0479 270.79 67.7709C271.042 67.242 271.319 66.8391 271.597 66.5872V64.3962C271.597 64.1443 271.395 63.8421 270.992 63.4895C270.589 63.1621 270.261 62.9859 269.984 62.9859H268.976C268.446 62.9859 267.917 62.8599 267.388 62.5829C267.11 62.5829 266.758 62.457 266.304 62.18C265.825 61.9281 265.472 61.777 265.22 61.777L264.036 62.18C263.229 62.457 262.851 62.7088 262.851 62.9859C262.448 63.1118 261.818 63.414 260.961 63.8925C260.104 64.371 259.222 64.8495 258.365 65.3784C257.508 65.9072 256.726 66.3857 256.071 66.7635C255.416 67.1665 255.013 67.3679 254.887 67.3679C254.761 67.4938 254.509 67.8716 254.181 68.4508C253.853 69.0553 253.475 69.7101 253.097 70.4404C252.694 71.1707 252.291 71.8255 251.913 72.43C251.509 73.0344 251.182 73.4625 250.904 73.7144C250.501 73.9914 249.77 74.4699 248.712 75.2002C247.653 75.9306 246.443 76.7365 245.133 77.5927C243.797 78.449 242.486 79.3556 241.15 80.2875C239.815 81.2193 238.68 81.8741 237.773 82.277L233.388 84.468L232.405 83.4607C232.405 83.3348 232.38 82.8311 232.304 81.9748C232.228 81.1185 232.279 80.4134 232.405 79.8845C232.279 78.2979 232.178 76.9883 232.102 76.0061C232.027 74.9988 232.001 74.0166 232.001 73.0092C232.001 72.0018 232.127 71.2463 232.405 70.7174C232.279 70.1886 232.102 69.1308 231.901 67.5442C231.699 65.9576 231.598 64.8999 231.598 64.371C231.724 63.8421 231.85 62.8851 232.001 61.4748C232.127 60.0897 232.203 58.6542 232.203 57.1935V51.0233C232.203 50.4945 232.279 49.6886 232.405 48.6308C232.531 47.5731 232.632 46.5153 232.707 45.4576C232.783 44.3999 232.833 43.3925 232.909 42.4607C232.984 41.5289 233.01 40.8741 233.01 40.4711C233.136 39.9422 233.362 38.9852 233.715 37.5749C234.043 36.1898 234.371 34.7291 234.723 33.1929C235.051 31.6818 235.354 30.1959 235.631 28.8108C235.883 27.4257 236.034 26.4687 236.034 25.9146C236.034 25.6628 235.807 25.1843 235.328 24.5295C234.85 23.8747 234.497 23.3962 234.245 23.1443C234.119 23.1443 233.967 23.0688 233.841 22.9429C233.564 22.691 233.312 22.5399 233.035 22.5399H231.245C230.968 22.6658 230.64 22.8169 230.237 22.9429C229.431 23.2199 228.977 23.4214 228.851 23.5473C228.725 23.2954 228.145 23.371 227.162 23.8495C226.154 24.328 225.524 24.6806 225.272 24.9324C225.146 24.9324 224.995 25.008 224.869 25.1339C224.592 25.4109 224.466 25.6628 224.466 25.9398C223.81 26.0657 222.878 26.6953 221.668 27.8286C220.483 28.9619 219.803 29.516 219.677 29.516L218.669 31.304C218.669 31.707 218.568 32.4373 218.366 33.4951C218.165 34.5528 217.963 35.6106 217.761 36.6683C217.56 37.726 217.358 38.7838 217.156 39.8415C216.955 40.8993 216.854 41.6296 216.854 42.0325C216.451 42.6873 216.123 43.6192 215.846 44.828C215.569 46.0117 215.317 47.2205 215.039 48.4042C214.762 49.5878 214.51 51.1241 214.233 52.9877V54.2721C214.233 55.0024 214.208 55.8083 214.132 56.6646C214.056 57.5209 213.956 58.4527 213.829 59.4601C213.703 60.4674 213.502 61.223 213.225 61.7518C213.477 62.1548 213.628 63.1873 213.628 64.8243V68.2997C213.502 69.1056 213.426 70.3649 213.426 72.0774V77.3409C213.426 79.129 213.451 80.7911 213.527 82.3274C213.603 83.8636 213.628 84.8206 213.628 85.2236C213.502 85.3495 213.451 85.8532 213.527 86.7094C213.603 87.5657 213.703 88.4975 213.829 89.5049C213.956 90.5123 214.082 91.4189 214.233 92.3004C214.359 93.1566 214.434 93.7359 214.434 93.9877C213.628 95.1714 212.998 96.1535 212.544 96.8839C212.065 97.6142 211.687 98.3194 211.36 98.9742C211.032 99.629 210.855 100.032 210.855 100.158L210.654 100.561V101.367C210.78 101.77 210.981 102.097 211.259 102.374C211.788 102.903 212.191 103.18 212.443 103.18C212.166 103.457 212.342 103.784 212.947 104.187C213.552 104.59 213.981 104.792 214.233 104.792L215.039 105.975C215.039 106.378 215.115 107.159 215.241 108.368C215.367 109.552 215.543 110.861 215.745 112.246C215.947 113.631 216.173 114.991 216.451 116.326C216.703 117.661 216.98 118.593 217.257 119.122C217.131 119.65 217.056 120.129 217.056 120.507C216.93 121.036 216.854 121.564 216.854 122.093C216.98 122.37 217.156 123.025 217.358 124.083C217.56 125.141 217.812 126.349 218.165 127.659C218.492 128.994 218.795 130.203 219.072 131.336C219.324 132.469 219.526 133.149 219.677 133.426V135.819C219.677 136.474 219.652 137.103 219.576 137.708C219.5 138.312 219.349 138.74 219.072 138.992L228.044 139.596C228.17 139.47 228.649 139.068 229.431 138.413C230.237 137.758 231.094 137.053 232.027 136.322C232.959 135.592 233.791 134.937 234.522 134.333C235.253 133.728 235.681 133.426 235.807 133.426C235.807 133.174 236.337 132.494 237.395 131.437C238.454 130.379 239.109 129.649 239.386 129.246V128.238C239.386 127.584 239.21 126.349 238.882 124.561C238.554 122.773 238.504 121.615 238.781 121.086C238.504 120.683 238.227 119.927 237.874 118.794C237.546 117.661 237.219 116.502 236.866 115.319C236.538 114.135 236.211 112.977 235.858 111.843C235.53 110.71 235.303 109.955 235.152 109.552V108.544C235.404 108.544 235.958 108.519 236.74 108.443C237.546 108.368 238.076 108.343 238.328 108.343C238.58 108.343 239.386 108.67 240.722 109.35C242.058 110.005 243.041 110.534 243.721 110.937C244.251 110.937 245.082 111.138 246.216 111.541C247.351 111.944 248.031 112.146 248.308 112.146C248.308 112.271 248.56 112.549 249.115 112.951C249.644 113.354 250.249 113.757 250.904 114.135C251.56 114.538 252.165 114.891 252.694 115.218C253.223 115.545 253.626 115.722 253.878 115.722C254.408 115.999 255.164 116.553 256.172 117.409C257.18 118.265 257.785 118.845 258.062 119.096C258.314 119.096 258.692 119.298 259.146 119.701C259.6 120.104 259.978 120.305 260.23 120.305C260.23 120.582 260.356 120.859 260.633 121.212C260.633 121.237 260.658 121.262 260.683 121.287C262.498 122.169 263.935 123.504 264.993 125.065C264.993 125.065 264.993 125.065 265.019 125.065C265.825 125.594 266.203 125.997 266.203 126.249C266.329 126.375 266.632 126.778 267.11 127.432C267.564 128.087 267.665 128.566 267.413 128.818C267.665 128.818 267.841 129.296 267.917 130.203C267.993 131.135 268.018 131.663 268.018 131.789C268.144 132.066 268.471 132.444 269.026 132.973C269.555 133.502 269.883 134.031 270.034 134.56L269.958 134.887C270.664 134.786 271.37 134.711 272.151 134.711C272.882 134.711 273.563 134.786 274.218 134.862C274.369 134.333 274.495 133.88 274.621 133.552C274.873 133.426 275.579 133.099 276.713 132.545C277.847 132.016 278.528 131.689 278.805 131.537C279.738 131.286 280.872 130.631 282.182 129.649C283.518 128.666 284.249 128.087 284.375 127.961C284.627 127.709 285.03 127.13 285.56 126.274C286.089 125.418 286.492 124.838 286.744 124.587C286.87 124.461 286.996 124.259 287.148 123.982C287.274 123.73 287.4 123.529 287.551 123.378C287.702 123.227 287.752 123.05 287.752 122.773V121.59C287.752 121.338 287.652 120.935 287.45 120.406L287.4 120.532Z" fill="#9B00E9"/>
</g>
<defs>
<clipPath id="clip0_85_402">
<rect width="374" height="164" fill="white"/>
</clipPath>
</defs>
</svg>
