<svg width="133" height="105" viewBox="0 0 133 105" fill="none" xmlns="http://www.w3.org/2000/svg">
<g filter="url(#filter0_d_85_364)">
<path d="M27.7179 41.7371C29.9908 46.9513 27.8581 50.5629 21.3198 52.5719L18.687 53.1564C20.0009 56.1705 20.9118 58.1109 21.4198 58.9777C21.9181 59.8224 22.5061 60.5149 23.1838 61.0551L23.8213 61.5328C22.9762 61.7426 21.5557 62.1541 19.5598 62.7674L15.3903 64.1234L15.4555 63.4673C15.5348 62.6945 15.3758 61.7329 14.9785 60.5827C14.5945 59.4034 13.3859 56.4818 11.3527 51.8176C9.35789 47.2415 8.08922 44.4506 7.5467 43.4447C6.99459 42.4169 6.37009 41.6109 5.67319 41.0267L5.11892 40.5609C5.964 40.3511 7.0633 40.0383 8.41684 39.6224C8.94449 39.4602 9.89176 39.1567 11.2587 38.7117C12.6389 38.2377 13.5011 37.9478 13.8452 37.8421C14.5564 37.6235 15.1806 37.4442 15.7178 37.3041C16.2551 37.1639 16.9492 37.0255 17.8001 36.8888C18.6414 36.7301 19.3871 36.6506 20.0374 36.6504C20.6877 36.6501 21.4155 36.7383 22.2209 36.915C23.0167 37.0696 23.7199 37.34 24.3305 37.7261C24.9544 38.0833 25.5719 38.6045 26.1828 39.29C26.7842 39.9534 27.2959 40.7691 27.7179 41.7371ZM21.498 43.7606C21.1048 42.8586 20.6411 42.1529 20.1068 41.6435C19.563 41.112 18.9697 40.7954 18.327 40.6935C17.6976 40.5626 17.1343 40.5236 16.6371 40.5766C16.1399 40.6296 15.5931 40.7477 14.9966 40.931L13.5801 41.4411L17.4067 50.2193C17.6324 50.1999 18.1811 50.0562 19.0528 49.7884C20.0623 49.4782 20.8258 49.0814 21.3435 48.598C21.8745 48.0856 22.1463 47.5156 22.1589 46.888C22.1945 46.2534 22.1603 45.7275 22.0565 45.3104C21.9431 44.8712 21.757 44.3546 21.498 43.7606ZM46.1337 54.6767C45.2887 54.8865 43.8911 55.2909 41.9411 55.8901L37.7716 57.2462L37.8368 56.59C37.9065 55.7952 37.7427 54.8227 37.3454 53.6724C36.971 52.5152 35.7672 49.6045 33.734 44.9404C31.7392 40.3643 30.4705 37.5733 29.928 36.5675C29.3759 35.5396 28.7514 34.7336 28.0545 34.1495L27.5002 33.6836C28.2994 33.4879 29.6969 33.0835 31.6928 32.4702L35.8623 31.1141L35.7972 31.7703C35.7274 32.5651 35.8797 33.5412 36.2542 34.6984C36.6515 35.8486 37.8668 38.7558 39.9 43.4199C41.8948 47.996 43.1682 50.798 43.7204 51.8258C44.2629 52.8316 44.8826 53.6267 45.5795 54.2108L46.1337 54.6767ZM62.1757 23.0286L62.1106 23.6848C62.0216 24.4356 62.174 25.4116 62.5675 26.6129C62.9841 27.8071 64.1993 30.7143 66.2133 35.3344L71.2771 46.9507C70.6156 47.1041 69.5736 47.3993 68.1513 47.8363L64.085 49.1607L49.3283 35.8077C48.9817 35.4901 48.2913 34.7418 47.257 33.5628L50.1773 40.2619C52.1722 44.838 53.4456 47.64 53.9977 48.6678C54.5402 49.6736 55.16 50.4686 55.8569 51.0528L56.4111 51.5187C55.7037 51.6861 54.5929 52.0025 53.0788 52.4678L49.7352 53.57L49.8003 52.9139C49.8513 52.3743 49.8363 51.8924 49.7555 51.4682C49.665 51.022 49.3185 50.0183 48.716 48.4571C48.1039 46.8739 47.0978 44.4763 45.6976 41.2642C43.7027 36.6881 42.4341 33.8972 41.8915 32.8913C41.3394 31.8635 40.7149 31.0575 40.018 30.4733L39.4638 30.0075C40.3318 29.7907 41.8096 29.3615 43.8973 28.72L47.8259 27.438L62.5683 40.7579C62.9148 41.0755 63.6052 41.8238 64.6395 43.0029L61.7336 36.3367C59.7387 31.7606 58.4701 28.9697 57.9276 27.9638C57.3755 26.936 56.7509 26.13 56.054 25.5458L55.4998 25.08C56.2072 24.9125 57.318 24.5961 58.8321 24.1309L62.1757 23.0286ZM88.8386 14.8357C88.094 15.8129 87.0326 18.1224 85.6544 21.7641L83.0152 28.5999L91.5427 34.2871C93.8933 35.86 95.5642 36.9182 96.5556 37.4618C97.5699 37.9983 98.3985 38.3175 99.0412 38.4194C98.3893 38.5948 96.9391 39.0279 94.6909 39.7187L90.9056 40.8819L77.9846 31.8296C79.9027 36.2297 81.1474 38.9657 81.7186 40.0375C82.2899 41.1094 82.924 41.9374 83.6209 42.5215L84.1752 42.9874C83.3301 43.1972 81.9326 43.6016 79.9826 44.2008L75.8131 45.5569L75.8782 44.9007C75.948 44.1059 75.7842 43.1334 75.3868 41.9832C75.0124 40.8259 73.8086 37.9152 71.7754 33.2511C69.7806 28.675 68.5119 25.884 67.9694 24.8782C67.4173 23.8504 66.7928 23.0444 66.0959 22.4602L65.5416 21.9943C66.3408 21.7987 67.7384 21.3942 69.7343 20.7809L73.9038 19.4248L73.8386 20.081C73.7593 20.8538 73.9116 21.8299 74.2956 23.0091C74.7025 24.1814 75.8842 27.0115 77.8407 31.4996L80.3606 23.3159C80.8217 21.9269 81.1025 20.93 81.2031 20.3253C81.2941 19.6986 81.2389 19.1542 81.0375 18.6922C80.7978 18.1422 80.3699 17.7872 79.7538 17.6272C80.5989 17.4175 82.0767 16.9883 84.1873 16.3398L88.8386 14.8357ZM117.166 19.1913C117.895 20.8633 118.353 22.4813 118.541 24.0453C118.751 25.6022 118.684 27.1196 118.34 28.5975C117.986 30.0534 117.189 31.3585 115.949 32.5129C114.733 33.6601 113.115 34.5439 111.096 35.1643C107.288 36.3345 103.967 36.2072 101.135 34.7823C98.2931 33.3355 96.0473 30.72 94.3978 26.9359C93.6689 25.2639 93.1992 23.6494 92.9888 22.0925C92.8013 20.5285 92.8845 19.0186 93.2384 17.5626C93.5827 16.0847 94.3632 14.7722 95.5801 13.6249C96.8198 12.4706 98.4491 11.5832 100.468 10.9629C104.276 9.79268 107.601 9.93101 110.443 11.3779C113.276 12.8027 115.517 15.4072 117.166 19.1913ZM110.777 21.4538C109.463 18.4397 108.108 16.374 106.71 15.2567C105.303 14.1174 103.739 13.8121 102.019 14.3408C100.275 14.8766 99.2972 15.9753 99.0851 17.6371C98.8959 19.2919 99.4631 21.6373 100.787 24.6734C102.1 27.6875 103.461 29.7642 104.868 30.9035C106.266 32.0208 107.825 32.3151 109.545 31.7864C111.289 31.2506 112.255 30.1554 112.444 28.5006C112.657 26.8388 112.101 24.4898 110.777 21.4538Z" fill="black"/>
</g>
<g filter="url(#filter1_d_85_364)">
<path d="M35.2357 76.0828C37.5086 81.297 35.3759 84.9086 28.8377 86.9176L26.2049 87.5021C27.5188 90.5162 28.4297 92.4566 28.9376 93.3234C29.4359 94.1681 30.0239 94.8606 30.7016 95.4008L31.3391 95.8785C30.494 96.0883 29.0736 96.4998 27.0777 97.1131L22.9082 98.4691L22.9733 97.813C23.0527 97.0402 22.8937 96.0786 22.4963 94.9284C22.1123 93.7491 20.9037 90.8275 18.8705 86.1633C16.8757 81.5872 15.607 78.7963 15.0645 77.7904C14.5124 76.7626 13.8879 75.9566 13.191 75.3724L12.6367 74.9066C13.4818 74.6968 14.5811 74.384 15.9347 73.9681C16.4623 73.8059 17.4096 73.5024 18.7765 73.0574C20.1567 72.5834 21.0189 72.2935 21.363 72.1878C22.0742 71.9693 22.6984 71.7899 23.2357 71.6498C23.7729 71.5097 24.467 71.3712 25.3179 71.2345C26.1592 71.0758 26.905 70.9963 27.5552 70.9961C28.2055 70.9958 28.9333 71.084 29.7387 71.2607C30.5345 71.4153 31.2377 71.6857 31.8483 72.0719C32.4722 72.429 33.0897 72.9502 33.7006 73.6357C34.302 74.2991 34.8137 75.1148 35.2357 76.0828ZM29.0158 78.1063C28.6226 77.2043 28.1589 76.4986 27.6247 75.9892C27.0808 75.4577 26.4875 75.1411 25.8448 75.0392C25.2154 74.9083 24.6521 74.8693 24.1549 74.9223C23.6578 74.9753 23.1109 75.0934 22.5145 75.2767L21.0979 75.7868L24.9245 84.565C25.1502 84.5456 25.6989 84.4019 26.5707 84.1341C27.5801 83.8239 28.3436 83.4271 28.8613 82.9437C29.3923 82.4313 29.6642 81.8613 29.6768 81.2337C29.7123 80.5991 29.6782 80.0732 29.5743 79.6561C29.461 79.2169 29.2748 78.7003 29.0158 78.1063ZM53.6516 89.0224C52.8065 89.2322 51.409 89.6366 49.4589 90.2358L45.2894 91.5919L45.3546 90.9357C45.4243 90.1409 45.2606 89.1684 44.8632 88.0182C44.4888 86.8609 43.285 83.9502 41.2518 79.2861C39.257 74.71 37.9883 71.919 37.4458 70.9132C36.8937 69.8854 36.2692 69.0794 35.5723 68.4952L35.018 68.0293C35.8172 67.8336 37.2148 67.4292 39.2107 66.8159L43.3802 65.4598L43.315 66.116C43.2452 66.9108 43.3976 67.8869 43.772 69.0441C44.1693 70.1944 45.3846 73.1015 47.4178 77.7656C49.4126 82.3417 50.6861 85.1437 51.2382 86.1715C51.7807 87.1774 52.4004 87.9724 53.0973 88.5565L53.6516 89.0224ZM69.6935 57.3743L69.6284 58.0305C69.5395 58.7813 69.6918 59.7573 70.0854 60.9586C70.5019 62.1528 71.7172 65.06 73.7312 69.6801L78.7949 81.2964C78.1334 81.4498 77.0915 81.745 75.6691 82.182L71.6028 83.5064L56.8461 70.1534C56.4995 69.8358 55.8091 69.0875 54.7748 67.9085L57.6952 74.6076C59.69 79.1837 60.9634 81.9857 61.5156 83.0135C62.0581 84.0193 62.6778 84.8143 63.3747 85.3985L63.9289 85.8644C63.2215 86.0319 62.1107 86.3482 60.5966 86.8135L57.253 87.9157L57.3182 87.2596C57.3691 86.72 57.3542 86.2381 57.2733 85.8139C57.1828 85.3677 56.8364 84.364 56.2338 82.8028C55.6217 81.2196 54.6156 78.822 53.2154 75.6099C51.2206 71.0338 49.9519 68.2429 49.4094 67.237C48.8573 66.2092 48.2328 65.4032 47.5359 64.819L46.9816 64.3532C47.8496 64.1364 49.3274 63.7072 51.4151 63.0657L55.3437 61.7837L70.0861 75.1036C70.4326 75.4212 71.1231 76.1695 72.1573 77.3486L69.2514 70.6824C67.2566 66.1063 65.9879 63.3154 65.4454 62.3095C64.8933 61.2817 64.2688 60.4757 63.5719 59.8915L63.0176 59.4257C63.725 59.2582 64.8358 58.9418 66.3499 58.4766L69.6935 57.3743ZM96.3564 49.1814C95.6118 50.1586 94.5504 52.4681 93.1722 56.1098L90.533 62.9456L99.0605 68.6328C101.411 70.2057 103.082 71.2639 104.073 71.8075C105.088 72.344 105.916 72.6632 106.559 72.7651C105.907 72.9405 104.457 73.3736 102.209 74.0644L98.4234 75.2276L85.5024 66.1753C87.4205 70.5754 88.6652 73.3114 89.2365 74.3832C89.8078 75.4551 90.4419 76.2831 91.1387 76.8672L91.693 77.3331C90.8479 77.5429 89.4504 77.9474 87.5004 78.5465L83.3309 79.9026L83.396 79.2464C83.4658 78.4516 83.302 77.4791 82.9046 76.3289C82.5302 75.1716 81.3264 72.2609 79.2933 67.5968C77.2984 63.0207 76.0298 60.2297 75.4872 59.2239C74.9351 58.1961 74.3106 57.3901 73.6137 56.8059L73.0595 56.34C73.8587 56.1444 75.2562 55.7399 77.2521 55.1266L81.4216 53.7705L81.3564 54.4267C81.2771 55.1995 81.4294 56.1756 81.8134 57.3548C82.2204 58.5271 83.4021 61.3572 85.3585 65.8453L87.8784 57.6616C88.3395 56.2726 88.6203 55.2757 88.7209 54.671C88.8119 54.0443 88.7567 53.4999 88.5553 53.0379C88.3156 52.4879 87.8877 52.1329 87.2716 51.9729C88.1167 51.7632 89.5946 51.334 91.7052 50.6855L96.3564 49.1814ZM124.684 53.537C125.413 55.209 125.871 56.827 126.059 58.391C126.269 59.9479 126.202 61.4653 125.858 62.9432C125.504 64.3991 124.707 65.7042 123.467 66.8586C122.25 68.0058 120.633 68.8897 118.614 69.51C114.805 70.6802 111.485 70.5529 108.653 69.128C105.811 67.6812 103.565 65.0657 101.916 61.2816C101.187 59.6096 100.717 57.9951 100.507 56.4382C100.319 54.8742 100.402 53.3643 100.756 51.9084C101.101 50.4304 101.881 49.1179 103.098 47.9706C104.338 46.8163 105.967 45.9289 107.986 45.3086C111.794 44.1384 115.119 44.2767 117.961 45.7236C120.793 47.1484 123.034 49.7529 124.684 53.537ZM118.295 55.7995C116.981 52.7854 115.626 50.7197 114.228 49.6024C112.821 48.4631 111.257 48.1578 109.536 48.6865C107.793 49.2223 106.815 50.321 106.603 51.9829C106.414 53.6376 106.981 55.983 108.304 59.0191C109.618 62.0332 110.979 64.1099 112.386 65.2492C113.784 66.3665 115.343 66.6608 117.063 66.1321C118.807 65.5963 119.773 64.5011 119.962 62.8463C120.174 61.1845 119.619 58.8355 118.295 55.7995Z" fill="black"/>
</g>
<defs>
<filter id="filter0_d_85_364" x="5.00385" y="7.40991" width="119.586" height="59.1096" filterUnits="userSpaceOnUse" color-interpolation-filters="sRGB">
<feFlood flood-opacity="0" result="BackgroundImageFix"/>
<feColorMatrix in="SourceAlpha" type="matrix" values="0 0 0 0 0 0 0 0 0 0 0 0 0 0 0 0 0 0 127 0" result="hardAlpha"/>
<feOffset dx="2" dy="2"/>
<feComposite in2="hardAlpha" operator="out"/>
<feColorMatrix type="matrix" values="0 0 0 0 0 0 0 0 0 0 0 0 0 0 0 0 0 0 0.6 0"/>
<feBlend mode="normal" in2="BackgroundImageFix" result="effect1_dropShadow_85_364"/>
<feBlend mode="normal" in="SourceGraphic" in2="effect1_dropShadow_85_364" result="shape"/>
</filter>
<filter id="filter1_d_85_364" x="12.5217" y="41.7556" width="119.586" height="59.1095" filterUnits="userSpaceOnUse" color-interpolation-filters="sRGB">
<feFlood flood-opacity="0" result="BackgroundImageFix"/>
<feColorMatrix in="SourceAlpha" type="matrix" values="0 0 0 0 0 0 0 0 0 0 0 0 0 0 0 0 0 0 127 0" result="hardAlpha"/>
<feOffset dx="2" dy="2"/>
<feComposite in2="hardAlpha" operator="out"/>
<feColorMatrix type="matrix" values="0 0 0 0 0 0 0 0 0 0 0 0 0 0 0 0 0 0 0.6 0"/>
<feBlend mode="normal" in2="BackgroundImageFix" result="effect1_dropShadow_85_364"/>
<feBlend mode="normal" in="SourceGraphic" in2="effect1_dropShadow_85_364" result="shape"/>
</filter>
</defs>
</svg>
