<?xml version="1.0" encoding="utf-8"?>
<!-- Generator: Adobe Illustrator 23.0.6, SVG Export Plug-In . SVG Version: 6.00 Build 0)  -->
<svg version="1.1" id="Layer_1" xmlns="http://www.w3.org/2000/svg" xmlns:xlink="http://www.w3.org/1999/xlink" x="0px" y="0px"
	 viewBox="0 0 218.74 215.66" style="enable-background:new 0 0 218.74 215.66;" xml:space="preserve">
<g>
	<g>
		<path d="M41.51,103.95c-3.71,1.54-8.3,1.76-9.81-1.89c0,0,0.65-0.13,1.72-0.57c2.63-1.09,5.39-3.56,2.27-11.09
			c-2.25-5.44-5.42-7-10.08-5.07c-2.27,0.94-2.78,1.22-2.78,1.22l8.74,21.09c4.46,10.76,5.25,11.83,7.56,13.53l1.1,0.8
			c0,0-2.44,0.87-8.36,3.32c-5.74,2.38-8.08,3.49-8.08,3.49l0.12-1.24c0.22-2.68,0.38-3.31-7.05-21.24
			c-7.2-17.39-7.54-17.53-9.79-19.4l-0.96-0.79c0,0,2.38-0.85,6.32-2.48c2.69-1.11,8.65-3.79,12.06-5.2
			c5.62-2.33,18.09-7.21,23.53,5.93C52.94,96.21,47.13,101.62,41.51,103.95z"/>
		<path d="M79.67,105.65c0,0-2.5,0.9-8.18,3.25c-5.74,2.38-8.14,3.51-8.14,3.51l0.12-1.24c0.25-2.77,0.38-3.31-7.05-21.24
			c-7.2-17.39-7.54-17.53-9.79-19.4l-0.96-0.79c0,0,2.32-0.82,8.18-3.25c6.16-2.55,8.14-3.51,8.14-3.51l-0.12,1.24
			c-0.25,2.77-0.38,3.31,7.05,21.24c7.2,17.39,7.54,17.53,9.79,19.4L79.67,105.65z"/>
		<path d="M106.76,45.63c-0.21,2.54-0.38,3.31,7.05,21.23l8.71,21.04c0,0-1.78,0.6-6.08,2.38c-4.6,1.91-8.26,3.56-8.26,3.56
			L85,72.21c-1.93-1.79-3.53-3.79-3.69-4l4.28,10.34c7.2,17.39,7.54,17.53,9.79,19.4l0.96,0.79c0,0-1.96,0.67-6.32,2.48
			c-4.66,1.93-6.4,2.79-6.4,2.79l0.12-1.24c0.21-2.54,0.38-3.31-7.05-21.24c-7.2-17.39-7.54-17.53-9.79-19.4l-0.96-0.79
			c0,0,2.62-0.95,8.65-3.45c5.14-2.13,7.78-3.36,7.78-3.36l23.06,21.53c2.26,2.08,3.74,4.12,3.74,4.12l-4.28-10.34
			c-7.2-17.39-7.54-17.53-9.79-19.4l-0.96-0.79c0,0,1.96-0.67,6.32-2.48c4.66-1.93,6.4-2.79,6.4-2.79L106.76,45.63z"/>
		<path d="M144.5,78.79c0,0-2.5,0.9-8.18,3.25c-5.74,2.38-8.14,3.51-8.14,3.51l0.12-1.24c0.28-2.71,0.38-3.31-7.05-21.24
			c-7.2-17.39-7.54-17.53-9.79-19.4l-0.96-0.79c0,0,2.32-0.82,8.18-3.25c6.16-2.55,8.14-3.51,8.14-3.51l-0.12,1.24
			c-0.28,2.71-0.38,3.31,7.04,21.24c7.2,17.39,7.54,17.53,9.79,19.4L144.5,78.79z M162.47,71.28l-9.56,3.96
			c0,0-2.69-4.98-8.46-10.29c-5.2-4.78-9.66-6.08-9.66-6.08s5.66-12.71,1.7-22.27c-1.01-2.45-2.63-2.97-3.38-3.08
			c0,0,3.24-1.13,8.8-3.44c5.74-2.38,9.19-4.01,9.19-4.01c-0.71,0.99-1.26,1.85-1.83,3.7c-1.51,4.97,1.33,10.3-3.65,21.11
			c0,0,3.82,0.94,9.18,5.44c5.47,4.59,7.43,8.47,10.64,10.65c1.36,0.91,2.58,1.66,3.65,1.71C169.09,68.68,166.47,69.62,162.47,71.28
			z"/>
		<path d="M190.27,60.82c-7.56,2.36-21.64,5.04-29.39-13.66c-7.48-18.05,4.18-26.93,11.16-30.53c7.56-2.36,21.64-5.04,29.39,13.66
			C208.9,48.34,197.25,57.22,190.27,60.82z M174.91,23.56c-2.85,2.09-6.04,6.21-1.06,18.22c4.97,12.01,10,12.66,13.55,12.1
			c2.85-2.09,6.04-6.21,1.06-18.22S178.45,23,174.91,23.56z"/>
	</g>
	<g>
		<path d="M41.51,171.11c-3.71,1.53-8.3,1.76-9.81-1.89c0,0,0.65-0.13,1.72-0.57c2.63-1.09,5.39-3.56,2.27-11.09
			c-2.25-5.44-5.42-7-10.08-5.07c-2.27,0.94-2.78,1.22-2.78,1.22l8.74,21.09c4.46,10.76,5.25,11.83,7.56,13.53l1.1,0.8
			c0,0-2.44,0.87-8.36,3.32c-5.74,2.38-8.08,3.49-8.08,3.49l0.12-1.24c0.22-2.68,0.38-3.31-7.05-21.24
			c-7.2-17.39-7.54-17.53-9.79-19.4l-0.96-0.79c0,0,2.38-0.85,6.32-2.48c2.69-1.11,8.65-3.79,12.06-5.2
			c5.62-2.33,18.09-7.21,23.53,5.94C52.93,163.37,47.13,168.78,41.51,171.11z"/>
		<path d="M79.67,172.81c0,0-2.5,0.9-8.18,3.25c-5.74,2.38-8.14,3.51-8.14,3.51l0.12-1.24c0.25-2.77,0.38-3.31-7.05-21.24
			c-7.2-17.39-7.54-17.53-9.79-19.4l-0.96-0.79c0,0,2.32-0.82,8.18-3.25c6.16-2.55,8.14-3.51,8.14-3.51l-0.12,1.24
			c-0.25,2.77-0.38,3.31,7.05,21.24c7.2,17.39,7.54,17.53,9.79,19.4L79.67,172.81z"/>
		<path d="M106.75,112.79c-0.21,2.54-0.38,3.31,7.05,21.24l8.71,21.03c0,0-1.78,0.6-6.08,2.38c-4.6,1.91-8.26,3.56-8.26,3.56
			L85,139.37c-1.93-1.79-3.53-3.79-3.69-4l4.28,10.34c7.2,17.39,7.54,17.53,9.79,19.4l0.96,0.79c0,0-1.96,0.67-6.32,2.48
			c-4.66,1.93-6.4,2.79-6.4,2.79l0.12-1.24c0.21-2.54,0.38-3.31-7.05-21.24c-7.2-17.39-7.54-17.53-9.79-19.4l-0.96-0.79
			c0,0,2.62-0.95,8.65-3.45c5.14-2.13,7.78-3.36,7.78-3.36l23.06,21.53c2.26,2.08,3.74,4.12,3.74,4.12l-4.28-10.34
			c-7.2-17.39-7.54-17.53-9.79-19.4l-0.96-0.79c0,0,1.96-0.67,6.32-2.48c4.66-1.93,6.4-2.79,6.4-2.79L106.75,112.79z"/>
		<path d="M144.5,145.95c0,0-2.5,0.9-8.18,3.25c-5.74,2.38-8.14,3.51-8.14,3.51l0.12-1.24c0.28-2.71,0.38-3.31-7.05-21.24
			c-7.2-17.39-7.54-17.53-9.79-19.4l-0.96-0.79c0,0,2.32-0.82,8.18-3.25c6.16-2.55,8.14-3.51,8.14-3.51l-0.12,1.24
			c-0.28,2.71-0.38,3.31,7.05,21.24c7.2,17.39,7.54,17.53,9.79,19.4L144.5,145.95z M162.47,138.44l-9.56,3.96
			c0,0-2.69-4.98-8.46-10.29c-5.2-4.78-9.66-6.08-9.66-6.08s5.66-12.71,1.7-22.27c-1.02-2.45-2.63-2.97-3.38-3.08
			c0,0,3.24-1.13,8.8-3.43c5.74-2.38,9.19-4.02,9.19-4.02c-0.71,0.99-1.26,1.85-1.83,3.7c-1.51,4.97,1.33,10.3-3.65,21.11
			c0,0,3.82,0.94,9.18,5.44c5.47,4.59,7.43,8.47,10.64,10.65c1.36,0.91,2.58,1.66,3.65,1.71
			C169.09,135.84,166.47,136.78,162.47,138.44z"/>
		<path d="M190.27,127.98c-7.56,2.36-21.65,5.04-29.39-13.66c-7.48-18.05,4.18-26.93,11.16-30.53c7.56-2.36,21.64-5.05,29.39,13.66
			C208.9,115.5,197.25,124.38,190.27,127.98z M174.9,90.72c-2.85,2.09-6.04,6.21-1.06,18.22c4.98,12.01,10,12.66,13.55,12.1
			c2.85-2.09,6.04-6.21,1.06-18.22C183.48,90.81,178.45,90.16,174.9,90.72z"/>
	</g>
</g>
</svg>
