<svg width="1280" height="885" viewBox="0 0 1280 885" fill="none" xmlns="http://www.w3.org/2000/svg">
<g clip-path="url(#clip0_85_413)">
<path d="M73.5001 -45.5C124.712 -15.8861 198.355 45.9964 190.159 98.7972C178.581 173.4 48.7825 215.769 48.7896 268.52C48.7966 311.009 132.999 287.538 188.06 365.237C233.784 429.756 210.883 495.538 252.778 517.667C299.998 542.608 342.418 466.095 405.336 464.774C522.464 462.302 504.384 724.744 654.957 812.116C773.843 881.101 921.728 796.769 937.305 787.587C1099.21 692.155 1310.08 387.303 1322.5 128" stroke="#FF99F4" stroke-width="70.1697" stroke-miterlimit="10"/>
<path d="M92.1525 -46.2258C143.364 -16.6119 198.355 26.8218 190.159 79.6226C178.581 154.226 48.7825 196.594 48.7896 249.345C48.7966 291.834 132.999 268.363 188.06 346.062C233.784 410.581 210.883 476.364 252.778 498.492C299.998 523.433 342.418 446.92 405.336 445.599C522.464 443.128 504.384 705.57 654.957 792.941C773.843 861.927 921.728 777.595 937.305 768.412C1099.21 672.98 1295.08 385.803 1307.5 126.5" stroke="white" stroke-width="8.01939" stroke-miterlimit="10"/>
</g>
<defs>
<clipPath id="clip0_85_413">
<rect width="1358" height="996" fill="white" transform="translate(-39 -111)"/>
</clipPath>
</defs>
</svg>
