<?xml version="1.0" encoding="utf-8"?>
<!-- Generator: Adobe Illustrator 28.0.0, SVG Export Plug-In . SVG Version: 6.00 Build 0)  -->
<svg version="1.1" id="Layer_1" xmlns="http://www.w3.org/2000/svg" xmlns:xlink="http://www.w3.org/1999/xlink" x="0px" y="0px"
	 viewBox="0 0 1280 885" style="enable-background:new 0 0 1280 885;" xml:space="preserve">
<style type="text/css">
	.st0{fill:#D999FF;}
</style>
<g>
	<g>
		<defs>
			<rect id="SVGID_1_" x="-39" y="-111" width="1358" height="996"/>
		</defs>
		<clipPath id="SVGID_00000010311744363241300270000009759538911544270729_">
			<use xlink:href="#SVGID_1_"  style="overflow:visible;"/>
		</clipPath>
	</g>
</g>
<path class="st0" d="M1280,296.5c-22.2,71.3-55.3,144.2-98.1,214.4c-34.7,57-75.3,111-117.2,156.1c-41.8,44.9-85.1,81.1-125.3,104.8
	c-11.8,7-91,51.9-179.1,51.9c-35.6,0-72.6-7.3-107.3-27.4C576.6,752,543.3,664.4,514,587.2c-14.3-37.6-27.8-73.1-44.6-98.4
	c-18.2-27.3-38.5-39.8-63.9-39.2c-27.8,0.6-51.4,16.4-74.1,31.6c-27.2,18.2-52.8,35.4-80.4,20.8c-23.3-12.3-28-37-33.5-65.6
	c-5.1-26.9-11-57.5-32.6-88c-29.1-41.1-67.4-53.4-95.3-62.3c-25-8-44.7-14.3-44.7-36.7c0-26.9,30.3-50.5,62.4-75.5
	c34.3-26.7,73.2-57.1,79.1-94.8c4.1-26.2-8.1-52.6-36.3-79H79.6c18.4,12.9,35.7,27.6,48.8,41.8c18.9,20.4,29,39.8,27.2,51.7
	c-4,25.6-37.7,51.9-67.5,75.1c-36.5,28.5-74.3,57.9-74.3,100c0,20.8,9.9,38.6,27.9,50.2c11.3,7.3,24.5,11.6,38.4,16
	c26.4,8.5,56.3,18.1,79.5,50.7c17.8,25.1,22.7,50.9,27.5,75.9c6.1,31.9,13,68,49.5,87.2c20.5,10.8,42.7,11.9,66.1,3.4
	c16.5-6,31.5-16.1,46.1-25.9c20-13.4,38.8-26,57.5-26.4c10.4-0.2,22.2,2.7,37.4,25.4c14.9,22.4,27.8,56.3,41.4,92.2
	c14.5,38.2,31,81.6,53.7,120.9c27.5,47.4,59.8,81.5,98.7,104.1c32.1,18.6,68.4,29.1,107.8,31.3c5,0.3,10,0.4,15.1,0.4
	c26.6,0,54.5-3.7,83.2-10.9c56.8-14.4,99.8-38.4,111.7-45.4c86.2-50.8,183.6-155.5,260.6-280.1c24.3-39.3,45.8-79.2,64.2-119V296.5z
	"/>
<path class="st0" d="M1280,192.5c-16.8,97.1-59.6,204.2-123.9,308.2c-35.3,57.1-76,111-117.8,156.1c-40.8,44-81.9,78.7-118.8,100.5
	l-0.1,0.1c-7,4.1-44.1,25.4-93.1,37.7c-60.4,15.3-112.1,10.8-153.7-13.4c-64.4-37.3-95-118-122-189.1
	c-15.1-39.7-29.3-77.3-48.7-106.3c-25.6-38.4-58.3-57.5-97.2-56.6c-39.2,0.8-70.2,21.6-95.1,38.2c-20.2,13.5-33.9,22.1-40.4,18.7
	c-6-3.2-8.8-14.7-13.3-38.3c-5.3-27.8-12.6-65.8-39.1-103.3c-36.7-51.7-84-66.9-115.3-76.9c-4.5-1.4-10-3.2-14.4-4.8
	c1.7-2.3,4.2-5.2,7.9-9c9.3-9.3,22.4-19.5,36.2-30.3c40-31.2,85.4-66.6,93.7-119.7C230,71.1,216.6,36.1,185.1,0h-23.8
	c26,26.5,37,53.3,32.8,80.2c-6.4,40.9-46.6,72.3-82.1,99.9c-30.5,23.8-59.3,46.2-59.3,69.2c0,15.8,13.4,20.8,39.1,29.1
	c29,9.3,68.7,22,99.4,65.3c22.7,32,28.9,64.8,34,91.2c5.3,27.7,9.5,49.5,29.3,60c23.4,12.3,46-2.8,72.2-20.4
	c22.6-15.2,48.3-32.4,78.4-33c61.4-1.3,86.8,65.5,116.2,142.8c28.8,76,61.5,162.1,135.5,205c116.5,67.6,262-14.9,278.2-24.5
	c80.6-47.5,170.2-144,239.8-258.1c47.7-78.3,83.4-159.9,105-238.8V192.5z"/>
</svg>
