<?xml version="1.0" encoding="utf-8"?>
<!-- Generator: Adobe Illustrator 23.1.1, SVG Export Plug-In . SVG Version: 6.00 Build 0)  -->
<svg version="1.1" id="Layer_1" xmlns="http://www.w3.org/2000/svg" xmlns:xlink="http://www.w3.org/1999/xlink" x="0px" y="0px"
	 viewBox="0 0 1915.35 1402.49" enable-background="new 0 0 1915.35 1402.49" xml:space="preserve">
<path fill="none" stroke="#DD87FF" stroke-width="70" stroke-miterlimit="10" d="M184.98,118.21
	c72.23,41.7,149.79,102.86,138.23,177.21c-16.33,105.05-199.4,164.71-199.39,238.99c0.01,59.83,118.77,26.78,196.43,136.19
	c64.49,90.85,32.19,183.48,91.28,214.64c66.6,35.12,126.43-72.62,215.17-74.48c165.2-3.48,139.7,366.07,352.07,489.1
	c167.68,97.14,376.26-21.61,398.23-34.54c228.36-134.38,396.99-469.93,414.51-835.06"/>
<path fill="none" stroke="#FFFFFF" stroke-width="8" stroke-miterlimit="10" d="M184.98,91.21
	c72.23,41.7,149.79,102.86,138.23,177.21c-16.33,105.05-199.4,164.71-199.39,238.99c0.01,59.83,118.77,26.78,196.43,136.19
	c64.49,90.85,32.19,183.48,91.28,214.64c66.6,35.12,126.43-72.62,215.17-74.48c165.2-3.48,139.7,366.07,352.07,489.1
	c167.68,97.14,376.26-21.61,398.23-34.54c228.36-134.38,396.99-469.93,414.51-835.06"/>
</svg>
