<svg width="25" height="19" viewBox="0 0 25 19" fill="none" xmlns="http://www.w3.org/2000/svg">
<path id="Union" fill-rule="evenodd" clip-rule="evenodd" d="M23.2601 7.68368C23.2601 11.365 20.2758 14.3493 16.5945 14.3493C12.9131 14.3493 9.92885 11.365 9.92885 7.68368C9.92885 4.00236 12.9131 1.01807 16.5945 1.01807C20.2758 1.01807 23.2601 4.00236 23.2601 7.68368ZM24.2601 7.68368C24.2601 11.9173 20.8281 15.3493 16.5945 15.3493C14.4837 15.3493 12.5722 14.4962 11.186 13.116L2.14462 18.8048C1.60587 19.1438 0.894336 18.9819 0.555356 18.4431C0.216376 17.9044 0.378319 17.1928 0.917066 16.8538L9.81124 11.2576C9.24782 10.1905 8.92885 8.97434 8.92885 7.68368C8.92885 3.45008 12.3609 0.0180664 16.5945 0.0180664C20.8281 0.0180664 24.2601 3.45008 24.2601 7.68368Z" fill="black"/>
</svg>
