<svg width="25" height="25" viewBox="0 0 25 25" fill="none" xmlns="http://www.w3.org/2000/svg">
<path d="M3.19727 1H21.8027C23.0298 1 24 1.99876 24 3.19727V21.8027C24 23.0298 23.0298 24 21.8027 24H3.19727C1.99876 24 1 23.0298 1 21.8027V3.19727C1 1.99876 1.99876 1 3.19727 1ZM12.5 12.129L18.7779 5.85112L19.1489 6.22208L12.871 12.5L19.1489 18.7779L18.7779 19.1489L12.5 12.871L6.22208 19.1489L5.85112 18.7779L12.129 12.5L5.85112 6.22208L6.22208 5.85112L12.5 12.129ZM21.8027 1.42804H3.19727C2.22705 1.42804 1.42804 2.22705 1.42804 3.19727V21.8027C1.42804 22.773 2.22705 23.572 3.19727 23.572H21.8027C22.773 23.572 23.572 22.773 23.572 21.8027V3.19727C23.572 2.22705 22.773 1.42804 21.8027 1.42804Z" stroke="#EDEDED" stroke-width="2" stroke-linejoin="round"/>
</svg>
